<?xml version="1.0"?>
<svg xmlns="http://www.w3.org/2000/svg" height="512px" viewBox="0 0 448 448" width="512px" class=""><g><path d="m224 0c-123.710938 0-224 100.289062-224 224s100.289062 224 224 224 224-100.289062 224-224c-.140625-123.652344-100.347656-223.859375-224-224zm102.144531 197.121094c-2.828125 3.390625-7.871093 3.847656-11.265625 1.023437l-82.878906-69.066406v206.921875c0 4.417969-3.582031 8-8 8s-8-3.582031-8-8v-206.921875l-82.878906 69.066406c-3.402344 2.699219-8.339844 2.191407-11.121094-1.144531-2.777344-3.339844-2.390625-8.285156.878906-11.144531l96-80c.234375-.191407.519532-.246094.761719-.414063.3125-.234375.640625-.449218.984375-.640625.222656-.105469.445312-.167969.679688-.257812.386718-.125.785156-.222657 1.191406-.285157.375-.089843.757812-.152343 1.144531-.1875.128906 0 .230469-.070312.359375-.070312s.222656.0625.351562.070312c.398438.035157.789063.097657 1.175782.195313.394531.0625.78125.15625 1.160156.277344.230469.074219.457031.160156.679688.257812.351562.191407.683593.40625 1 .648438.257812.121093.511718.257812.753906.40625l96 80c3.390625 2.828125 3.847656 7.871093 1.023437 11.265625zm0 0" data-original="#000000" class="active-path" data-old_color="#000000" fill="#CDD1D3"/></g> </svg>
